<?xml version="1.0" standalone="no"?>
<!DOCTYPE svg PUBLIC "-//W3C//DTD SVG 20010904//EN"
 "http://www.w3.org/TR/2001/REC-SVG-20010904/DTD/svg10.dtd">
<svg version="1.0" xmlns="http://www.w3.org/2000/svg"
 width="344.000000pt" height="724.000000pt" viewBox="0 0 344.000000 724.000000"
 preserveAspectRatio="xMidYMid meet">
<metadata>
Created by potrace 1.16, written by Peter Selinger 2001-2019
</metadata>
<g transform="translate(0.000000,724.000000) scale(0.100000,-0.100000)"
fill="#000000" stroke="none">
<path d="M1449 7150 c-411 -52 -730 -212 -979 -493 -223 -250 -365 -548 -430
-902 -20 -107 -20 -146 -20 -1630 0 -836 0 -1583 0 -1660 l0 -141 76 -104 c99
-136 202 -236 285 -278 111 -56 170 -64 504 -69 l300 -5 0 -696 c0 -654 1
-700 19 -752 69 -206 258 -353 483 -376 76 -8 202 23 287 70 131 73 229 209
261 361 15 71 17 153 16 736 l-1 657 302 5 c172 3 327 10 358 17 80 17 173 63
244 119 71 57 104 95 200 230 l66 95 0 1628 c0 1786 3 1686 -61 1943 -39 157
-70 246 -136 381 -75 157 -157 268 -313 425 -236 237 -431 342 -765 415 -108
24 -145 26 -375 29 -140 2 -285 0 -321 -5z m536 -315 c207 -29 444 -118 597
-224 102 -70 200 -170 271 -275 127 -190 192 -375 239 -686 21 -143 22 -165
25 -1605 3 -978 0 -1495 -7 -1565 -12 -121 -37 -175 -105 -222 -91 -63 -61
-61 -1151 -66 -1017 -3 -1261 2 -1363 33 -65 20 -103 57 -140 135 l-26 55 0
1540 c0 1626 -1 1594 46 1850 54 289 163 510 338 685 206 206 524 333 906 364
75 6 257 -4 370 -19z m-17 -5458 c3 -538 -10 -891 -35 -944 -45 -95 -228 -133
-350 -71 -57 28 -83 62 -95 125 -6 26 -12 348 -15 716 l-5 667 249 0 248 0 3
-493z"/>
</g>
</svg>
