<svg xmlns="http://www.w3.org/2000/svg" viewBox="0 0 329.753 100"><rect width="110" height="100" rx="8" fill="#a0e4b0"/><g xmlns="http://www.w3.org/2000/svg" transform="translate(14.276 10.017) scale(.81424)" fill="#fff"><path d="m49.225 15.748.263-.239c1.289-1.169 2.026-2.836 2.026-4.574s-.737-3.406-2.026-4.574l-.263-.241-.264.24c-1.288 1.168-2.027 2.836-2.027 4.574s.739 3.405 2.027 4.574l.264.24zM33.92 22.571l.354.041.076-.348a6.198 6.198 0 0 0-1.01-4.9 6.195 6.195 0 0 0-4.307-2.545l-.354-.042-.075.348a6.197 6.197 0 0 0 1.008 4.9 6.19 6.19 0 0 0 4.308 2.546zm-17.797 7.438a6.171 6.171 0 0 0 4.967.601l.34-.105-.069-.347a6.196 6.196 0 0 0-2.895-4.083 6.231 6.231 0 0 0-4.967-.601l-.341.104.071.349a6.199 6.199 0 0 0 2.894 4.082zm-4.897 10.655a6.17 6.17 0 0 0 1.806.135 6.2 6.2 0 0 0 3.101-1.11l.291-.206-.176-.31a6.193 6.193 0 0 0-4.021-2.978 6.203 6.203 0 0 0-4.907.978l-.29.204.175.31a6.192 6.192 0 0 0 4.021 2.977zm6.713 10.799-.272-.229A6.182 6.182 0 0 0 8.6 52.47l-.201.294.273.228a6.152 6.152 0 0 0 4.805 1.389 6.193 6.193 0 0 0 4.26-2.625l.202-.293zm12.355 8.526a6.198 6.198 0 0 0-2.872 4.097l-.069.351.342.102a6.204 6.204 0 0 0 2.943.149 6.19 6.19 0 0 0 4.893-4.873l.07-.351-.342-.102a6.24 6.24 0 0 0-4.965.627zm18.122-24.818-.285-.138-.163.271a7.597 7.597 0 0 0-.78 6.092 7.605 7.605 0 0 0 3.987 4.671l.285.137.163-.271a7.592 7.592 0 0 0 .779-6.09 7.59 7.59 0 0 0-3.986-4.672zM50.962 20.5l-.163-.264-.277.137a7.461 7.461 0 0 0-3.863 4.624 7.452 7.452 0 0 0 .829 5.966l.163.266.276-.139a7.451 7.451 0 0 0 3.863-4.623 7.455 7.455 0 0 0-.828-5.967zM40.166 50.981a10.204 10.204 0 0 0 2.84-.639l.347-.133-.109-.313c-.741-2.111-2.479-3.843-4.77-4.747-2.277-.902-4.963-.903-7.28-.018l-.346.132.109.312c.741 2.113 2.479 3.845 4.769 4.749 1.384.55 2.92.777 4.44.657zm-12.978 5.758a7.666 7.666 0 0 0 5.756-3.084l.213-.285-.265-.239a7.58 7.58 0 0 0-5.885-1.938 7.67 7.67 0 0 0-5.39 3.056l-.212.285.263.239a7.603 7.603 0 0 0 5.52 1.966zm2.927-16.854.321-.151-.12-.336a7.671 7.671 0 0 0-4.272-4.487 7.576 7.576 0 0 0-4.78-.357 7.581 7.581 0 0 0-1.413.506l-.322.15.119.335a7.684 7.684 0 0 0 4.271 4.489 7.594 7.594 0 0 0 4.781.357 7.899 7.899 0 0 0 1.415-.506zM26.4 46.503l.253-.237-.212-.274a7.476 7.476 0 0 0-5.31-2.885 7.396 7.396 0 0 0-4.543 1.1 7.562 7.562 0 0 0-1.162.892l-.252.238.211.274a7.484 7.484 0 0 0 5.311 2.887 7.401 7.401 0 0 0 4.543-1.101c.413-.259.805-.56 1.161-.894zm-.284-17.417a7.651 7.651 0 0 0 5.03 1.933h.001c.287.003.581-.012.867-.043l.354-.038-.004-.356a7.646 7.646 0 0 0-8.462-7.532l-.354.038.003.355a7.667 7.667 0 0 0 2.565 5.643zm16.276-4.944.301.186.218-.273a7.248 7.248 0 0 0 1.49-5.824c-.373-2.055-1.632-3.869-3.452-4.983l-.301-.184-.218.271a7.257 7.257 0 0 0-1.491 5.825c.373 2.054 1.631 3.869 3.453 4.982zM33.893 35.43l-.317.037.008.268c.062 1.801 1.034 3.498 2.671 4.656 1.58 1.115 3.591 1.635 5.664 1.462l.286-.026.317-.038-.01-.267c-.059-1.802-1.032-3.499-2.669-4.655-1.654-1.169-3.795-1.679-5.95-1.437zm2.14-9.865-.298-.03-.046.244c-.316 1.659.225 3.41 1.483 4.804 1.214 1.344 2.943 2.231 4.876 2.5.087.013.176.023.266.032l.297.033.047-.246c.315-1.658-.226-3.409-1.484-4.804-1.271-1.404-3.122-2.31-5.141-2.533zm30.074-2.994-.353.041-.075-.348a6.19 6.19 0 0 1 1.009-4.9 6.195 6.195 0 0 1 4.306-2.545l.354-.042.075.348a6.19 6.19 0 0 1-1.009 4.9 6.186 6.186 0 0 1-4.307 2.546zm17.798 7.438a6.17 6.17 0 0 1-4.968.601l-.339-.105.07-.347a6.186 6.186 0 0 1 2.895-4.083 6.227 6.227 0 0 1 4.966-.601l.341.104-.071.349a6.192 6.192 0 0 1-2.894 4.082zm4.898 10.655a6.168 6.168 0 0 1-1.805.135 6.207 6.207 0 0 1-3.103-1.11l-.291-.206.177-.31a6.198 6.198 0 0 1 4.021-2.978 6.202 6.202 0 0 1 4.906.978l.292.204-.177.31a6.193 6.193 0 0 1-4.02 2.977zM82.09 51.463l.272-.229a6.19 6.19 0 0 1 4.807-1.389 6.184 6.184 0 0 1 4.259 2.625l.201.294-.272.228a6.156 6.156 0 0 1-4.806 1.389 6.193 6.193 0 0 1-4.261-2.625l-.2-.293zm-12.355 8.526a6.192 6.192 0 0 1 2.87 4.097l.069.351-.341.102a6.208 6.208 0 0 1-2.944.149 6.192 6.192 0 0 1-4.893-4.873l-.069-.351.342-.102a6.242 6.242 0 0 1 4.966.627zm-9.874-9.008a10.213 10.213 0 0 1-2.839-.639l-.347-.133.11-.313c.741-2.111 2.479-3.843 4.769-4.747 2.277-.902 4.964-.903 7.279-.018l.346.132-.108.312c-.741 2.113-2.479 3.845-4.769 4.749a9.964 9.964 0 0 1-4.441.657zm12.979 5.758a7.664 7.664 0 0 1-5.756-3.084l-.213-.285.264-.239a7.587 7.587 0 0 1 5.887-1.938 7.671 7.671 0 0 1 5.39 3.056l.212.285-.264.239a7.601 7.601 0 0 1-5.52 1.966c.001 0 .001 0 0 0zm-2.926-16.854-.321-.151.119-.336a7.675 7.675 0 0 1 4.271-4.487 7.577 7.577 0 0 1 4.78-.357 7.6 7.6 0 0 1 1.415.506l.321.15-.119.335a7.677 7.677 0 0 1-4.272 4.489 7.588 7.588 0 0 1-4.779.357 7.87 7.87 0 0 1-1.415-.506zm3.713 6.618-.251-.237.211-.274a7.475 7.475 0 0 1 5.311-2.885 7.4 7.4 0 0 1 4.543 1.1c.413.258.803.559 1.161.892l.253.238-.212.274a7.484 7.484 0 0 1-5.31 2.887 7.403 7.403 0 0 1-4.544-1.101 7.673 7.673 0 0 1-1.162-.894zm.286-17.417a7.653 7.653 0 0 1-5.03 1.933 7.394 7.394 0 0 1-.869-.043l-.355-.038.004-.356a7.672 7.672 0 0 1 2.565-5.64 7.646 7.646 0 0 1 5.899-1.892l.354.038-.004.355a7.677 7.677 0 0 1-2.564 5.643zm-16.276-4.944-.301.186-.218-.273a7.248 7.248 0 0 1-1.49-5.824c.373-2.055 1.632-3.869 3.451-4.983l.302-.184.218.271a7.257 7.257 0 0 1 1.49 5.825c-.372 2.054-1.632 3.869-3.452 4.982zm8.499 11.288.317.037-.008.268c-.062 1.801-1.034 3.498-2.672 4.656-1.579 1.115-3.59 1.635-5.662 1.462l-.288-.026-.316-.038.009-.267c.061-1.802 1.034-3.499 2.67-4.655 1.652-1.169 3.794-1.679 5.95-1.437zm-3.584-8.898.326.006.019.271c.125 1.84-.691 3.666-2.239 5.009-1.493 1.297-3.484 2.032-5.613 2.068h-.293l-.326-.004-.02-.271c-.122-1.839.695-3.666 2.242-5.01 1.561-1.356 3.686-2.092 5.904-2.069zm-1.063 27.746a2.961 2.961 0 0 0-.533.162c-1.658.536-6.673 2.52-10.941 7.353-4.27-4.833-9.285-6.816-10.941-7.353a3.035 3.035 0 0 0-.533-.162c-.717-.265-1.66 1.235-.761 1.854 3.097 2.041 6.109 4.54 7.049 9.396.574 2.971.478 6.974.399 10.786-.135 6.539-1.294 12.909-6.69 15.395 1.502.393 5.86.755 11.478-3.057 5.615 3.812 9.975 3.449 11.478 3.057-5.397-2.485-6.557-8.855-6.692-15.395-.076-3.812-.175-7.815.4-10.786.939-4.855 3.951-7.354 7.05-9.396.897-.618-.046-2.118-.763-1.854z"/><circle cx="50.015" cy="53.274" r="3.122"/></g><path d="M146.395 45c-4.79 0-8.691-1.037-11.753-3.16s-4.593-4.988-4.593-8.692v-.444L130 30.728h9.679v2.223c0 .84.593 1.63 1.728 2.37s2.716 1.136 4.79 1.136c1.729 0 2.963-.247 3.754-.692.74-.444 1.135-1.037 1.135-1.679 0-.79-.493-1.481-1.432-2.074-.987-.592-2.716-1.284-5.135-2.123-1.531-.543-2.815-.988-3.852-1.383s-2.272-.987-3.704-1.778c-1.432-.74-2.617-1.58-3.457-2.42s-1.58-1.876-2.222-3.16-.938-2.667-.938-4.197c0-3.605 1.382-6.519 4.197-8.692S140.963 5 145.407 5c4.593 0 8.346 1.136 11.309 3.407s4.444 5.284 4.444 9.037v2.42h-9.63v-2.222c0-1.037-.493-2.025-1.53-2.864s-2.519-1.235-4.395-1.235c-1.53 0-2.716.247-3.506.741-.79.543-1.185 1.136-1.185 1.877s.444 1.333 1.333 1.827c.889.543 2.568 1.234 5.037 2.074l2.518.889 2.667 1.086c1.136.543 2.074.988 2.766 1.432s1.481 1.037 2.42 1.778 1.629 1.53 2.172 2.272c.494.74.938 1.679 1.333 2.716a10.56 10.56 0 0 1 .544 3.308c0 3.655-1.432 6.47-4.247 8.445-2.815 2.024-6.519 3.012-11.062 3.012zm23.111-4.79c2.815 3.012 6.617 4.05 10.766 4.05 2.222 0 4.543-.346 6.617-1.235v1.234h8V15.617h-8.79v13.827c0 3.852-1.63 6.37-5.827 6.37-4.247 0-5.778-2.567-5.778-6.37V15.617h-8.84V29.89c0 3.802 1.087 7.407 3.852 10.32zm29.383-24.296c0 9.284-.05 18.567-.05 27.9v.445h8V29.642c0-3.556 3.112-6.667 6.914-6.667 3.654 0 6.519 2.815 6.914 6.173.049.494 0 1.037 0 1.531l.049 3.605v9.876l8 .1V29.394c0-3.605-1.827-7.16-4.444-9.679-2.865-2.765-6.37-4.247-10.519-4.247-2.47 0-4.84.543-7.012 1.63v-1.482h-7.852v.297zm33.778 13.975c0 7.753 6.568 14.42 14.913 14.42 2.47 0 4.79-.494 6.914-1.531v1.481h8v-.444c0-4.642.05-9.284.05-13.926 0-7.852-.05-15.753-.05-23.605V5.79h-7.852v11.358c-2.173-1.086-4.543-1.63-7.062-1.63-8.345 0-14.913 6.667-14.913 14.37zm19.851 4.889c-1.333 1.333-2.962 2.024-4.938 2.024-3.901 0-6.913-3.259-6.913-6.913 0-3.605 3.012-6.864 6.913-6.864 1.976 0 3.605.74 4.938 2.024.988.988 1.976 2.716 1.976 4v1.729c0 1.284-.988 3.062-1.976 4zm13.976-4.938c0 7.753 6.568 14.42 14.913 14.42 2.519 0 4.89-.544 7.062-1.63v1.63h7.852l-.05-28.544h-8V17c-2.123-1.037-4.444-1.53-6.864-1.53-8.345 0-14.913 6.666-14.913 14.37zm19.852 4.888c-1.334 1.284-2.963 2.025-4.939 2.025-3.9 0-6.913-3.26-6.913-6.913 0-3.605 3.012-6.865 6.913-6.865 1.976 0 3.605.692 4.939 1.976.84.84 1.926 2.617 1.926 3.654v2.518c0 1.037-1.087 2.717-1.926 3.605zm13.926-4.84c0-7.604 6.469-14.221 14.765-14.221 8.247 0 14.716 6.617 14.716 14.222a14.39 14.39 0 0 1-.296 2.963l-20.593.05c1.087 2.221 3.358 3.802 6.173 3.802 1.926 0 3.654-.79 4.84-1.976h8.987c-2.025 5.383-7.407 9.432-13.827 9.432-8.296 0-14.765-6.42-14.765-14.074v-.197zm8.84-3.407-.248.692h12.494l-.395-.692c-1.185-1.975-3.309-3.358-5.926-3.358s-4.79 1.383-5.926 3.358zM130 95.063v-39.96h8.71l17.828 22.337V55.102h10.195v39.961h-8.658l-17.829-22.286v22.286H130zm40.832-14.96c0 8.044 6.814 14.96 15.472 14.96 2.613 0 5.072-.563 7.326-1.69v1.69h8.146l-.051-29.612h-8.3v1.332c-2.203-1.076-4.61-1.588-7.121-1.588-8.658 0-15.472 6.916-15.472 14.909zm20.595 5.073c-1.383 1.332-3.074 2.1-5.123 2.1-4.047 0-7.173-3.381-7.173-7.172 0-3.74 3.126-7.122 7.173-7.122 2.05 0 3.74.718 5.123 2.05.871.87 1.998 2.715 1.998 3.79v2.614c0 1.076-1.127 2.817-1.998 3.74zm22.593-12.757v22.644h8.3v-9.016c0-3.28-.103-6.61-.103-9.888v-3.74l8.197-.103v-7.018l-8.197.05V55h-8.146v10.4h-8.197v7.019h8.146zm24.49 18.443c2.92 3.125 6.864 4.201 11.168 4.201 2.305 0 4.713-.358 6.865-1.28v1.28h8.3V65.35h-9.12v14.345c0 3.996-1.69 6.609-6.045 6.609-4.406 0-5.994-2.664-5.994-6.61V65.35h-9.171v14.806c0 3.945 1.127 7.685 3.996 10.707zM268.94 65.4v29.663h8.147l.102-15.472c.051-3.79 3.125-6.967 7.173-6.967h2.151l.052-7.787h-2.203c-2.51 0-4.97.512-7.173 1.639V65.4h-8.248zm17.47 14.704c0 8.043 6.815 14.96 15.473 14.96 2.613 0 5.072-.564 7.326-1.691v1.69h8.146l-.051-29.612h-8.3v1.332c-2.203-1.076-4.61-1.588-7.121-1.588-8.658 0-15.472 6.916-15.472 14.909zm20.596 5.072c-1.383 1.332-3.074 2.1-5.123 2.1-4.047 0-7.173-3.381-7.173-7.172 0-3.74 3.126-7.122 7.173-7.122 2.05 0 3.74.718 5.123 2.05.871.87 1.998 2.715 1.998 3.79v2.614c0 1.076-1.127 2.817-1.998 3.74zm14.447 9.939h8.3l-.102-40.064h-8.146v.513z" fill="#111"/></svg>